<svg width="96" height="96" viewBox="0 0 96 96" fill="none" xmlns="http://www.w3.org/2000/svg">
  <!-- Premium enterprise shield illustration -->
  <rect width="96" height="96" fill="#0f172a"/>
  
  <!-- EU stars halo -->
  <g opacity="0.3">
    <circle cx="48" cy="20" r="1.5" fill="#f59e0b"/>
    <circle cx="56" cy="22" r="1.5" fill="#f59e0b"/>
    <circle cx="60" cy="28" r="1.5" fill="#f59e0b"/>
    <circle cx="40" cy="22" r="1.5" fill="#f59e0b"/>
    <circle cx="36" cy="28" r="1.5" fill="#f59e0b"/>
  </g>
  
  <!-- Shield outline -->
  <path 
    d="M 48 24 L 64 32 L 64 48 C 64 60 56 68 48 72 C 40 68 32 60 32 48 L 32 32 Z" 
    fill="#1e293b" 
    stroke="#f59e0b" 
    stroke-width="2"
  />
  
  <!-- Inner shield gradient -->
  <path 
    d="M 48 28 L 60 34 L 60 48 C 60 57 54 63 48 66 C 42 63 36 57 36 48 L 36 34 Z" 
    fill="url(#shieldGradient)"
    opacity="0.6"
  />
  
  <!-- Checkmark -->
  <path 
    d="M 42 48 L 46 52 L 54 42" 
    stroke="#f59e0b" 
    stroke-width="3" 
    stroke-linecap="round" 
    stroke-linejoin="round"
    fill="none"
  />
  
  <!-- Audit log pages -->
  <g opacity="0.4">
    <rect x="52" y="54" width="16" height="20" rx="1" fill="#94a3b8" stroke="#64748b" stroke-width="0.5"/>
    <line x1="56" y1="58" x2="64" y2="58" stroke="#64748b" stroke-width="0.5"/>
    <line x1="56" y1="62" x2="64" y2="62" stroke="#64748b" stroke-width="0.5"/>
    <line x1="56" y1="66" x2="64" y2="66" stroke="#64748b" stroke-width="0.5"/>
  </g>
  
  <defs>
    <linearGradient id="shieldGradient" x1="48" y1="28" x2="48" y2="66" gradientUnits="userSpaceOnUse">
      <stop offset="0%" stop-color="#f59e0b" stop-opacity="0.4"/>
      <stop offset="100%" stop-color="#f59e0b" stop-opacity="0.1"/>
    </linearGradient>
  </defs>
</svg>
